<svg width="16" height="16" viewBox="0 0 16 16" fill="none" xmlns="http://www.w3.org/2000/svg">
<g id="dot-vertical">
<g id="Icon">
<path d="M8.00039 4.79998C7.11674 4.79998 6.40039 4.08363 6.40039 3.19998C6.40039 2.31632 7.11674 1.59998 8.00039 1.59998C8.88405 1.59998 9.60039 2.31632 9.60039 3.19998C9.60039 4.08363 8.88405 4.79998 8.00039 4.79998Z" stroke="black" stroke-opacity="0.9"/>
<path d="M8.00039 9.59998C7.11674 9.59998 6.40039 8.88363 6.40039 7.99998C6.40039 7.11632 7.11674 6.39998 8.00039 6.39998C8.88405 6.39998 9.60039 7.11632 9.60039 7.99998C9.60039 8.88363 8.88405 9.59998 8.00039 9.59998Z" stroke="black" stroke-opacity="0.9"/>
<path d="M8.00039 14.4C7.11674 14.4 6.40039 13.6836 6.40039 12.8C6.40039 11.9163 7.11674 11.2 8.00039 11.2C8.88405 11.2 9.60039 11.9163 9.60039 12.8C9.60039 13.6836 8.88405 14.4 8.00039 14.4Z" stroke="black" stroke-opacity="0.9"/>
</g>
</g>
</svg>
