<svg width="48" height="48" viewBox="0 0 48 48" fill="none" xmlns="http://www.w3.org/2000/svg">
<g id="feather:upload-cloud">
<g id="Group">
<path id="Vector" d="M32 32L24 24L16 32" stroke="black" stroke-opacity="0.4" stroke-width="2" stroke-linecap="round" stroke-linejoin="round"/>
<path id="Vector_2" d="M24 24V42" stroke="black" stroke-opacity="0.4" stroke-width="2" stroke-linecap="round" stroke-linejoin="round"/>
<path id="Vector_3" d="M40.7799 36.78C42.7306 35.7165 44.2716 34.0338 45.1597 31.9973C46.0477 29.9607 46.2323 27.6865 45.6843 25.5334C45.1363 23.3803 43.8869 21.471 42.1333 20.1069C40.3796 18.7428 38.2216 18.0015 35.9999 18H33.4799C32.8745 15.6585 31.7462 13.4847 30.1798 11.642C28.6134 9.7993 26.6496 8.3357 24.4361 7.36121C22.2226 6.38673 19.817 5.92672 17.4002 6.01576C14.9833 6.10481 12.6181 6.7406 10.4823 7.87533C8.34649 9.01006 6.49574 10.6142 5.06916 12.5672C3.64259 14.5201 2.6773 16.7711 2.24588 19.1508C1.81446 21.5305 1.92813 23.9771 2.57835 26.3065C3.22856 28.636 4.3984 30.7877 5.99992 32.6" stroke="black" stroke-opacity="0.4" stroke-width="2" stroke-linecap="round" stroke-linejoin="round"/>
<path id="Vector_4" d="M32 32L24 24L16 32" stroke="black" stroke-opacity="0.4" stroke-width="2" stroke-linecap="round" stroke-linejoin="round"/>
</g>
</g>
</svg>
