<svg width="42" height="43" viewBox="0 0 42 43" fill="none" xmlns="http://www.w3.org/2000/svg">
<g id="folder">
<path id="Vector" d="M15.7524 7.8542C16.332 7.8731 16.7951 8.1188 17.1122 8.5892L17.9364 10.8152C18.0887 11.1281 18.3176 11.42 18.5255 11.6331C18.7901 11.903 19.1901 12.0531 19.7393 12.0531H37.2753L37.2732 30.9531C37.2449 31.9779 36.9582 32.6268 36.3954 33.2022C35.8022 33.8081 34.9433 34.1031 33.8649 34.1031H9.18572C8.10842 34.1031 7.24952 33.8091 6.65627 33.2022C6.06407 32.5964 5.77637 31.7165 5.77637 30.614V7.85315H15.7535L15.7524 7.8542Z" fill="#8AA8CA"/>
<path id="Vector_2" d="M15.7524 7.85103C16.332 7.86993 16.7951 8.11563 17.1122 8.58603L17.9364 10.812C18.0887 11.1249 18.3176 11.4168 18.5255 11.63C18.7901 11.8998 19.1901 12.05 19.7393 12.05H37.2753L37.2732 29.732C37.2449 30.7568 36.9582 31.5737 36.3954 32.1491C35.8022 32.7549 34.9433 33.05 33.8649 33.05H9.18572C8.10842 33.05 7.24952 32.756 6.65627 32.1491C6.06407 31.5432 5.77637 30.6633 5.77637 29.5608V7.84998L15.7535 7.85103H15.7524Z" fill="#9AB791"/>
</g>
</svg>
