<svg width="20" height="20" viewBox="0 0 20 20" fill="none" xmlns="http://www.w3.org/2000/svg">
<g id="u:box">
<path id="Vector" d="M17.0747 6.26667C17.07 6.2447 17.07 6.22198 17.0747 6.20001C17.0706 6.18077 17.0706 6.16091 17.0747 6.14167V6.06667L17.0247 5.94167C17.0044 5.90756 16.9791 5.87667 16.9497 5.85001L16.8747 5.78334H16.833L13.5497 3.70834L10.4497 1.79167C10.378 1.73478 10.2959 1.69233 10.208 1.66667H10.1414C10.0669 1.65424 9.99084 1.65424 9.91636 1.66667H9.83302C9.73623 1.68808 9.64342 1.72464 9.55802 1.77501L3.33302 5.65001L3.25802 5.70834L3.18302 5.77501L3.09969 5.83334L3.05802 5.88334L3.00802 6.00834V6.08334V6.13334C2.99993 6.1886 2.99993 6.24475 3.00802 6.30001V13.575C3.00774 13.7166 3.04355 13.856 3.11208 13.9799C3.18061 14.1039 3.2796 14.2083 3.39969 14.2833L9.64969 18.15L9.77469 18.2H9.84136C9.98234 18.2447 10.1337 18.2447 10.2747 18.2H10.3414L10.4664 18.15L16.6664 14.3417C16.7865 14.2666 16.8854 14.1622 16.954 14.0383C17.0225 13.9143 17.0583 13.775 17.058 13.6333V6.35834C17.058 6.35834 17.0747 6.30001 17.0747 6.26667ZM9.99969 3.47501L11.483 4.39167L6.82469 7.27501L5.33302 6.35834L9.99969 3.47501ZM9.16636 15.975L4.58302 13.175V7.85001L9.16636 10.6833V15.975ZM9.99969 9.21667L8.40802 8.25834L13.0664 5.36667L14.6664 6.35834L9.99969 9.21667ZM15.4164 13.15L10.833 16V10.6833L15.4164 7.85001V13.15Z" fill="#71839B"/>
</g>
</svg>
