<svg width="20" height="20" viewBox="0 0 20 20" fill="none" xmlns="http://www.w3.org/2000/svg">
<g id="u:home-alt">
<path id="Vector" d="M16.6667 6.66667L11.6667 2.28334C11.2084 1.87338 10.615 1.64673 10.0001 1.64673C9.38513 1.64673 8.79176 1.87338 8.33341 2.28334L3.33341 6.66667C3.06872 6.9034 2.8575 7.1938 2.71381 7.51854C2.57012 7.84328 2.49726 8.19491 2.50008 8.55V15.8333C2.50008 16.4964 2.76347 17.1323 3.23231 17.6011C3.70115 18.0699 4.33704 18.3333 5.00008 18.3333H15.0001C15.6631 18.3333 16.299 18.0699 16.7678 17.6011C17.2367 17.1323 17.5001 16.4964 17.5001 15.8333V8.54167C17.5017 8.18797 17.4283 7.83795 17.2846 7.51474C17.141 7.19152 16.9304 6.90247 16.6667 6.66667ZM11.6667 16.6667H8.33341V12.5C8.33341 12.279 8.42121 12.067 8.57749 11.9107C8.73377 11.7545 8.94573 11.6667 9.16675 11.6667H10.8334C11.0544 11.6667 11.2664 11.7545 11.4227 11.9107C11.5789 12.067 11.6667 12.279 11.6667 12.5V16.6667ZM15.8334 15.8333C15.8334 16.0544 15.7456 16.2663 15.5893 16.4226C15.4331 16.5789 15.2211 16.6667 15.0001 16.6667H13.3334V12.5C13.3334 11.837 13.07 11.2011 12.6012 10.7322C12.1323 10.2634 11.4965 10 10.8334 10H9.16675C8.5037 10 7.86782 10.2634 7.39898 10.7322C6.93014 11.2011 6.66675 11.837 6.66675 12.5V16.6667H5.00008C4.77907 16.6667 4.5671 16.5789 4.41082 16.4226C4.25454 16.2663 4.16675 16.0544 4.16675 15.8333V8.54167C4.1669 8.42335 4.19224 8.30642 4.24109 8.19865C4.28995 8.09089 4.36119 7.99476 4.45008 7.91667L9.45008 3.54167C9.60215 3.40807 9.79766 3.33439 10.0001 3.33439C10.2025 3.33439 10.398 3.40807 10.5501 3.54167L15.5501 7.91667C15.639 7.99476 15.7102 8.09089 15.7591 8.19865C15.8079 8.30642 15.8333 8.42335 15.8334 8.54167V15.8333Z" fill="#3E7E2D"/>
</g>
</svg>
